<svg width="100" height="162" fill="none" xmlns="http://www.w3.org/2000/svg"><circle cx="50" cy="112" r="49.5" stroke="#C4C4C4"/><path d="M62.646 116.062L50 128.708l-12.646-12.646" stroke="#fff" stroke-width="3.125" stroke-miterlimit="10" stroke-linecap="round" stroke-linejoin="round"/><path opacity=".4" d="M50 93.292v35.062" stroke="#fff" stroke-width="3.125" stroke-miterlimit="10" stroke-linecap="round" stroke-linejoin="round"/><path d="M43.838 5.67c0-.996.126-1.896.378-2.7.264-.804.642-1.5 1.134-2.088l1.188.522a6.72 6.72 0 00-1.044 1.926c-.228.672-.342 1.452-.342 2.34 0 1.08.198 1.878.594 2.394.408.528.942.792 1.602.792.528 0 .948-.192 1.26-.576.312-.372.558-1.002.738-1.89l.378-1.872c.24-1.128.63-1.974 1.17-2.538.552-.552 1.284-.828 2.196-.828.756 0 1.416.192 1.98.576.564.396 1.002.942 1.314 1.638.312.696.468 1.5.468 2.412a6.68 6.68 0 01-.414 2.376 4.957 4.957 0 01-1.152 1.854l-1.152-.522c.492-.54.846-1.11 1.062-1.71.228-.6.342-1.272.342-2.016 0-.948-.222-1.704-.666-2.268-.432-.564-1.008-.846-1.728-.846-.576 0-1.032.174-1.368.522-.336.36-.582.942-.738 1.746l-.396 1.872c-.252 1.212-.636 2.106-1.152 2.682-.504.588-1.194.882-2.07.882-.708 0-1.332-.192-1.872-.576-.54-.372-.96-.912-1.26-1.62-.3-.696-.45-1.524-.45-2.484zm0 10.48c0-.876.186-1.632.558-2.268a3.888 3.888 0 011.602-1.476c.696-.336 1.506-.504 2.43-.504 1.392 0 2.484.378 3.276 1.134.804.756 1.206 1.794 1.206 3.114 0 .54-.096 1.074-.288 1.602a3.533 3.533 0 01-.81 1.314l-1.062-.504c.336-.348.582-.732.738-1.152.156-.408.234-.798.234-1.17 0-.912-.288-1.614-.864-2.106-.564-.492-1.38-.738-2.448-.738-1.044 0-1.872.246-2.484.738-.6.492-.9 1.194-.9 2.106 0 .372.078.762.234 1.17a3.2 3.2 0 00.756 1.152l-1.062.504c-.348-.348-.624-.792-.828-1.332a4.608 4.608 0 01-.288-1.584zM44 20.774h8.748v1.422h-1.566c1.056.468 1.638 1.428 1.746 2.88l.054.522-1.26.108-.108-.918c-.072-.828-.336-1.458-.792-1.89-.444-.432-1.056-.648-1.836-.648H44v-1.476zm-.162 9.982c0-.852.186-1.59.558-2.214a3.83 3.83 0 011.566-1.458c.684-.336 1.488-.504 2.412-.504.924 0 1.722.168 2.394.504a3.805 3.805 0 011.584 1.458c.372.624.558 1.362.558 2.214 0 .84-.186 1.572-.558 2.196a3.657 3.657 0 01-1.584 1.458c-.672.348-1.47.522-2.394.522-.924 0-1.728-.174-2.412-.522a3.679 3.679 0 01-1.566-1.458c-.372-.624-.558-1.356-.558-2.196zm1.17 0c0 .816.288 1.47.864 1.962.588.492 1.422.738 2.502.738 1.092 0 1.926-.246 2.502-.738.576-.492.864-1.146.864-1.962 0-.828-.288-1.488-.864-1.98-.576-.48-1.41-.72-2.502-.72-1.08 0-1.914.24-2.502.72-.576.492-.864 1.152-.864 1.98zm-1.17 9.048c0-.888.258-1.56.774-2.016.528-.444 1.29-.666 2.286-.666h9.792v1.458h-9.684c-1.284 0-1.926.51-1.926 1.53 0 .3.036.57.108.81l-1.224-.036a4.899 4.899 0 01-.126-1.08zm0 5.326c0-.888.258-1.56.774-2.016.528-.444 1.29-.666 2.286-.666h9.792v1.458h-9.684c-1.284 0-1.926.51-1.926 1.53 0 .3.036.57.108.81l-1.224-.036a4.899 4.899 0 01-.126-1.08z" fill="#fff" fill-opacity=".7"/></svg>