<svg width="34" height="34" fill="none" xmlns="http://www.w3.org/2000/svg"><path d="M23.156 33h7.78c1.14 0 2.064-.924 2.064-2.064V3.065C33 1.925 32.076 1 30.936 1H3.065C1.925 1 1 1.924 1 3.065v27.87C1 32.075 1.924 33 3.065 33h15.024" stroke="silver" stroke-width="2" stroke-miterlimit="10"/><path d="M23.156 33V20.333h4.56l.506-5.067h-5.066v-3.04c0-2.026 1.52-2.026 2.027-2.026h3.04V5.64c-2.048-.208-10.134-2.027-10.134 6.586v3.04h-4.053v5.067h4.053V33" stroke="silver" stroke-width="2" stroke-miterlimit="10" stroke-linecap="round" stroke-linejoin="round"/></svg>