<svg width="116" height="29" fill="none" xmlns="http://www.w3.org/2000/svg"><path d="M37.896 23h3.12V11.504h.144L48.312 23h3.504V6.2H48.72v11.496h-.144L41.376 6.2h-3.48V23zM58.183 8.696c1.128 0 1.944-.696 1.944-1.824 0-1.08-.816-1.8-1.944-1.8-1.104 0-1.92.72-1.92 1.8 0 1.128.816 1.824 1.92 1.824zM53.79 28.52h1.344c2.736 0 4.608-1.752 4.608-4.68V10.376h-3.12v13.44c0 1.176-.72 1.92-1.944 1.92h-.888v2.784zm13.809-5.208c1.776 0 3.024-.912 3.528-1.848h.192V23h2.976V10.376h-3.12v7.248c0 1.584-1.08 2.808-2.592 2.808-1.44 0-2.448-1.056-2.448-2.592v-7.464h-3.12v8.256c0 2.688 1.752 4.68 4.584 4.68zm15.757 5.52c4.272 0 6.432-2.496 6.432-5.928V10.376h-3.096v1.632H86.5c-.384-.624-1.632-1.944-3.864-1.944-3.36 0-5.832 2.592-5.832 6.576 0 4.008 2.52 6.552 5.928 6.552 2.256 0 3.432-1.344 3.792-1.92h.192v1.632c0 2.16-1.104 3.36-3.36 3.36-1.704 0-2.712-.72-2.952-1.848h-2.88c.216 2.352 2.184 4.416 5.832 4.416zm0-8.448c-2.016 0-3.384-1.44-3.384-3.744 0-2.232 1.368-3.744 3.36-3.744 1.968 0 3.408 1.392 3.408 3.744 0 2.136-1.296 3.744-3.384 3.744zm14.196 2.928c1.776 0 3.024-.912 3.528-1.848h.192V23h2.976V10.376h-3.12v7.248c0 1.584-1.08 2.808-2.592 2.808-1.44 0-2.448-1.056-2.448-2.592v-7.464h-3.12v8.256c0 2.688 1.752 4.68 4.584 4.68zm9.997-.312h3.12v-5.976c0-2.256 1.2-3.72 3.192-3.72h1.296v-2.976h-1.152c-1.752 0-2.904 1.128-3.312 2.112h-.192v-2.064h-2.952V23z" fill="#fff"/><path fill-rule="evenodd" clip-rule="evenodd" d="M14 26c6.627 0 12-5.373 12-12S20.627 2 14 2 2 7.373 2 14s5.373 12 12 12zm0 2c7.732 0 14-6.268 14-14S21.732 0 14 0 0 6.268 0 14s6.268 14 14 14z" fill="#fff"/><mask id="mask0_2_1119" style="mask-type:alpha" maskUnits="userSpaceOnUse" x="0" y="0" width="28" height="28"><path d="M28 14c0 7.732-6.268 14-14 14S0 21.732 0 14 6.268 0 14 0s14 6.268 14 14z" fill="#000"/></mask><g mask="url(#mask0_2_1119)"><path d="M28 24.182c0 7.732-6.268 14-14 14s-14-6.268-14-14 6.268-14 14-14 14 6.268 14 14z" fill="#fff"/></g></svg>