<svg width="42" height="34" fill="none" xmlns="http://www.w3.org/2000/svg"><path d="M39.05 1.512S36.98 3.18 34.077 3.48c0 0-4.57-5.104-11.11-.667-2.935 2.068-3.202 6.439-2.702 8.007 0 0-8.874.7-16.614-8.374 0 0-3.47 6.005 2.268 10.81 0 0-1.696.266-3.308-1.068 0 0-.762 6.205 6.178 7.94 0 0-.468.8-3.27 0 0 0 .467 5.071 7.073 5.805 0 0-3.569 3.67-11.593 3.203 0 0 13.261 9.942 27.607-2.069 8.007-6.805 7.74-16.614 7.606-18.082 0 0 3.163-2.402 3.984-3.937 0 0-2.449.8-4.45.8 0 0 2.668-1.4 3.302-4.336v0z" stroke="silver" stroke-width="2" stroke-miterlimit="10" stroke-linecap="round" stroke-linejoin="round"/></svg>